<svg width="90" height="70" viewBox="0 0 90 70" fill="none" xmlns="http://www.w3.org/2000/svg"><circle cx="80" cy="10" r="10" fill="#F3F4F8"/><circle cx="20" cy="50" r="20" fill="#F3F4F8"/><g clip-path="url(#clip0_1378:567)"><path d="M69.1664 39.1644V67.4977C69.1637 68.417 68.419 69.1617 67.4997 69.1644H22.4997C21.5804 69.1617 20.8357 68.417 20.833 67.4977V39.1644L21.183 38.8977L21.3913 39.1644H68.6081L68.8164 38.8977L69.1664 39.1644Z" fill="#A4C2F7"/><path d="M66.6664 39.1644V67.4977C66.6637 68.417 65.919 69.1617 64.9997 69.1644H22.4997C21.5804 69.1617 20.8357 68.417 20.833 67.4977V39.1644H66.1081L66.3164 38.8977L66.6664 39.1644Z" fill="#D4E1F4"/><path d="M68.8164 38.8979L68.6081 39.1646L45.8331 56.6646H44.1664L21.3914 39.1646L21.1831 38.8979L29.1664 32.6896L40.1497 24.1646L43.9914 21.1813C44.5826 20.7146 45.4168 20.7146 46.0081 21.1813L49.8498 24.1646L60.8331 32.6896L68.8164 38.8979Z" fill="#A4C2F7"/><path d="M60.8332 25.8313V45.1396L58.3332 47.0646L45.8332 56.6645H44.1665L29.1665 45.1396V25.8313C29.1692 24.9119 29.9139 24.1673 30.8332 24.1646H59.1665C60.0858 24.1674 60.8305 24.9119 60.8332 25.8313Z" fill="#A4C2F7"/><path d="M58.3332 25.8313V47.0646L45.8332 56.6645H44.1665L29.1665 45.1396V25.8313C29.1692 24.9119 29.9139 24.1673 30.8332 24.1646H56.6665C57.5858 24.1674 58.3305 24.9119 58.3332 25.8313Z" fill="#E3E7F2"/><path d="M68.8411 68.481C68.5301 68.9116 68.0307 69.1659 67.4994 69.1643H22.4994C21.9683 69.1659 21.4688 68.9116 21.1577 68.481L40.2494 53.656L43.9911 50.7477C44.5823 50.281 45.4165 50.281 46.0078 50.7477L49.7495 53.656L68.8411 68.481Z" fill="#A4C2F7"/><path d="M21.158 68.4812C21.1714 68.4996 21.1905 68.5138 21.2038 68.5321C21.2563 68.5984 21.3138 68.6608 21.3755 68.7187C21.4121 68.7521 21.4505 68.7836 21.4905 68.8129C21.5437 68.8546 21.5993 68.893 21.6572 68.9279C21.7022 68.9538 21.7464 68.9796 21.7931 69.0013C21.8613 69.0328 21.9317 69.0593 22.0039 69.0805C22.0464 69.0938 22.0872 69.1104 22.1306 69.1205C22.2516 69.1489 22.3754 69.1638 22.4997 69.1646H24.9997C24.876 69.1636 24.7527 69.1488 24.6322 69.1205C24.5881 69.1105 24.5489 69.0938 24.5056 69.0805C24.4334 69.0593 24.363 69.0329 24.2947 69.0013C24.248 68.9796 24.2039 68.9538 24.1589 68.9279C24.1011 68.893 24.0454 68.8546 23.9922 68.8129C23.9521 68.7836 23.9138 68.7521 23.8771 68.7187C23.8154 68.6608 23.7581 68.5984 23.7055 68.5321C23.6921 68.5138 23.6729 68.4996 23.6597 68.4812C23.4479 68.1972 23.3333 67.8523 23.333 67.4979V39.1646L23.683 38.8979L31.6663 32.6896V25.8312C31.669 24.9119 32.4137 24.1673 33.333 24.1646H30.833C29.9137 24.1673 29.169 24.9119 29.1663 25.8312V32.6895L21.183 38.8978L20.833 39.1645V67.4978C20.8341 67.8515 20.9489 68.1953 21.1605 68.4787L21.158 68.4812Z" fill="white"/><path d="M46.25 21.3688L46.0083 21.1813C45.4171 20.7146 44.5829 20.7146 43.9916 21.1813L40.1499 24.1646H42.6499L46.25 21.3688Z" fill="white"/><path d="M20 67.4979V56.6646V39.1646H21.6667V56.6646V67.4979H20Z" fill="white"/><path d="M20.5167 61.598C20.564 61.6221 20.6145 61.639 20.6667 61.648C20.7218 61.6573 20.7775 61.6629 20.8334 61.6647C21.054 61.6615 21.2652 61.5752 21.4251 61.423C21.5004 61.3434 21.5599 61.25 21.6001 61.148C21.7258 60.8372 21.6573 60.4815 21.4251 60.2397C21.3454 60.1645 21.2521 60.105 21.1501 60.0647C21.0499 60.0221 20.9423 59.9994 20.8334 59.998C20.6128 60.0013 20.4016 60.0876 20.2417 60.2397C19.9194 60.5684 19.9194 61.0944 20.2417 61.423L20.3667 61.523C20.4132 61.5546 20.4636 61.5799 20.5167 61.598Z" fill="#2E58FF"/><path d="M69.9559 38.9451C69.9443 38.8958 69.9284 38.8476 69.9084 38.801C69.8846 38.7568 69.8567 38.7149 69.8251 38.676C69.7921 38.6282 69.7541 38.5841 69.7117 38.5443C69.6983 38.5327 69.6926 38.5168 69.6784 38.506L61.6668 32.2818V25.831C61.6668 24.4503 60.5475 23.331 59.1668 23.331H50.1359L46.52 20.5235C45.6266 19.8274 44.3743 19.8274 43.4809 20.5235L39.8643 23.331H30.8334C29.4527 23.331 28.3334 24.4503 28.3334 25.831V32.2818L20.3226 38.506C20.1223 38.665 20.0079 38.9086 20.0134 39.1643H20V57.4976C20 57.9578 20.3731 58.3309 20.8333 58.3309C21.2935 58.3309 21.6666 57.9577 21.6666 57.4976V40.4335L35.3225 51.0377C35.6862 51.3198 36.21 51.2536 36.4921 50.8897C36.7742 50.526 36.708 50.0022 36.3441 49.7201L22.4709 38.9469L28.3334 34.3919V40.8311C28.3334 41.2913 28.7065 41.6644 29.1667 41.6644C29.627 41.6644 30 41.2912 30 40.8311V25.8311C30 25.3708 30.3731 24.9978 30.8333 24.9978H59.1666C59.6269 24.9978 59.9999 25.3709 59.9999 25.8311V40.8311C59.9999 41.2913 60.3729 41.6644 60.8332 41.6644C61.2935 41.6644 61.6665 41.2912 61.6665 40.8311V34.3919L67.529 38.9469L53.6309 49.7394C53.2673 50.0217 53.2015 50.5453 53.4838 50.909C53.7661 51.2726 54.2897 51.3384 54.6534 51.0561L68.3334 40.4336V67.0294L46.5184 50.0868C45.6255 49.3917 44.3746 49.3917 43.4817 50.0868L21.6667 67.0293V64.1643C21.6667 63.704 21.2936 63.331 20.8334 63.331C20.3732 63.331 20 63.7041 20 64.1644V67.4977C20.0033 67.766 20.0503 68.0319 20.1392 68.2852C19.9479 68.5736 19.9568 68.9508 20.1615 69.2299C20.3662 69.509 20.7232 69.6309 21.0559 69.5352C21.4772 69.8362 21.9821 69.9979 22.5 69.9977H67.5C68.0197 69.9966 68.526 69.8325 68.9475 69.5285C69.0186 69.5504 69.0923 69.5624 69.1666 69.5644C69.471 69.5661 69.7517 69.4003 69.897 69.1328C70.0423 68.8653 70.0287 68.5396 69.8616 68.2853C69.9502 68.032 69.9969 67.766 70 67.4978V39.1644C70 39.1469 69.9908 39.1318 69.99 39.1152C69.9849 39.0574 69.9734 39.0004 69.9559 38.9451ZM44.5 21.8385C44.791 21.6072 45.2031 21.6072 45.4941 21.8385L47.4166 23.331H42.5833L44.5 21.8385ZM44.5 51.4026C44.7912 51.1728 45.2021 51.1728 45.4934 51.4026L67.2934 68.331H22.7067L44.5 51.4026Z" fill="#2E58FF"/><path d="M36.6668 30.8312H53.3335C53.7938 30.8312 54.1668 30.458 54.1668 29.9979C54.1668 29.5376 53.7938 29.1646 53.3335 29.1646H36.6668C36.2065 29.1646 35.8335 29.5377 35.8335 29.9979C35.8335 30.4581 36.2065 30.8312 36.6668 30.8312Z" fill="#2E58FF"/><path d="M36.6668 35.8316H53.3335C53.7938 35.8316 54.1668 35.4585 54.1668 34.9983C54.1668 34.5381 53.7938 34.165 53.3335 34.165H36.6668C36.2065 34.165 35.8335 34.5382 35.8335 34.9983C35.8335 35.4586 36.2065 35.8316 36.6668 35.8316Z" fill="#2E58FF"/><path d="M53.3333 39.1646H45.8333C45.373 39.1646 45 39.5377 45 39.9979C45 40.4581 45.373 40.8312 45.8333 40.8312H53.3333C53.7936 40.8312 54.1666 40.458 54.1666 39.9979C54.1666 39.5376 53.7936 39.1646 53.3333 39.1646Z" fill="#2E58FF"/></g><defs><clipPath id="clip0_1378:567"><rect width="50" height="50" fill="white" transform="translate(20 20)"/></clipPath></defs></svg>