<!--Generated by IcoMoon.io--><svg version="1.1" xmlns="http://www.w3.org/2000/svg" width="32" height="32" viewBox="0 0 32 32"><title>moon</title><path d="M12.775 0.331c0.565-0.117 1.13-0.201 1.687-0.255 0.573-0.055 1.141-0.081 1.7-0.075 0.315 0.003 0.568 0.26 0.565 0.575-0.003 0.242-0.156 0.448-0.37 0.529-2.383 0.937-4.289 2.685-5.458 4.849-1.151 2.127-1.588 4.656-1.065 7.208l0.003 0.018c0.596 2.88 2.299 5.247 4.578 6.747 2.276 1.5 5.122 2.13 8.002 1.542l0.018-0.003c2.073-0.43 3.877-1.43 5.286-2.807 1.458-1.424 2.489-3.25 2.95-5.25 0.070-0.307 0.378-0.497 0.682-0.427 0.232 0.055 0.398 0.242 0.435 0.463 0.687 4.218-0.352 8.351-2.62 11.642-2.258 3.276-5.736 5.721-9.942 6.585-4.328 0.891-8.606-0.057-12.025-2.307-3.422-2.258-5.981-5.812-6.872-10.14-0.87-4.226 0.013-8.406 2.151-11.783 2.148-3.388 5.559-5.973 9.734-6.986 0.081-0.021 0.174-0.042 0.276-0.065h0.003l0.281-0.060z"/></svg>