<!--Generated by IcoMoon.io--><svg version="1.1" xmlns="http://www.w3.org/2000/svg" width="62" height="62" viewBox="0 0 32 32" fill="#999"><title>profile</title><path d="M16 1.667c-2.843-0.003-5.622 0.84-7.984 2.421s-4.2 3.83-5.279 6.46c-1.080 2.63-1.352 5.521-0.783 8.306s1.954 5.338 3.979 7.333l0.080 0.080c1.683 1.64 3.744 2.841 6 3.497s4.64 0.747 6.94 0.266c2.3-0.482 4.446-1.521 6.25-3.028s3.209-3.433 4.093-5.61c0.884-2.177 1.219-4.539 0.976-6.876s-1.058-4.579-2.371-6.527c-1.314-1.949-3.086-3.544-5.161-4.647s-4.39-1.678-6.74-1.675zM7.68 25.080c0-2.207 0.877-4.323 2.437-5.883s3.677-2.437 5.883-2.437 4.323 0.877 5.883 2.437c1.56 1.56 2.437 3.676 2.437 5.883-2.266 2.092-5.236 3.253-8.32 3.253s-6.054-1.161-8.32-3.253zM13 12c0-0.593 0.176-1.173 0.506-1.667s0.798-0.878 1.346-1.105 1.151-0.286 1.733-0.171c0.582 0.116 1.116 0.401 1.536 0.821s0.705 0.954 0.821 1.536c0.116 0.582 0.056 1.185-0.171 1.733s-0.612 1.017-1.105 1.346c-0.493 0.33-1.073 0.506-1.667 0.506-0.796 0-1.559-0.316-2.121-0.879s-0.879-1.326-0.879-2.121zM26.080 23.080c-0.39-1.708-1.206-3.289-2.372-4.597s-2.643-2.3-4.295-2.883c0.722-0.69 1.221-1.58 1.433-2.556s0.126-1.993-0.245-2.92c-0.372-0.927-1.012-1.722-1.839-2.281s-1.803-0.859-2.802-0.859c-0.999 0-1.974 0.299-2.802 0.859s-1.468 1.354-1.839 2.281c-0.372 0.927-0.457 1.944-0.245 2.92s0.711 1.866 1.433 2.556c-1.652 0.583-3.129 1.575-4.295 2.883s-1.982 2.889-2.372 4.597c-1.094-1.589-1.799-3.413-2.060-5.325s-0.069-3.858 0.559-5.682c0.628-1.824 1.675-3.476 3.057-4.821s3.061-2.349 4.901-2.928c1.84-0.579 3.791-0.719 5.695-0.407s3.708 1.065 5.268 2.201c1.56 1.136 2.831 2.621 3.712 4.337s1.347 3.615 1.361 5.544c0.002 2.537-0.786 5.011-2.253 7.080z"/></svg>