<!--Generated by IcoMoon.io--><svg version="1.1" xmlns="http://www.w3.org/2000/svg" width="32" height="32" viewBox="0 0 32 32" style="fill:#fff"><title>sun</title><path d="M15.539 0.469c-0.169 0.088-0.372 0.264-0.46 0.386l-0.156 0.237 0.020 2.787c0.020 3.172-0.007 3.017 0.615 3.328 0.365 0.189 0.717 0.162 1.076-0.081 0.46-0.304 0.46-0.311 0.46-3.328 0-2.706 0-2.712-0.156-2.942-0.162-0.25-0.656-0.534-0.927-0.534-0.094 0-0.311 0.068-0.473 0.149z"/><path d="M5.285 4.71c-0.474 0.216-0.757 0.731-0.67 1.211 0.041 0.216 0.318 0.528 1.948 2.164 1.048 1.055 1.988 1.962 2.090 2.016 0.771 0.406 1.732-0.42 1.515-1.305-0.061-0.237-3.767-3.984-4.079-4.119-0.291-0.129-0.473-0.116-0.804 0.033z"/><path d="M25.921 4.676c-0.311 0.142-4.004 3.889-4.065 4.119-0.108 0.453 0.074 0.927 0.46 1.218 0.244 0.183 0.785 0.23 1.042 0.095 0.108-0.061 1.055-0.967 2.104-2.022 1.63-1.637 1.908-1.948 1.948-2.164 0.088-0.48-0.196-0.994-0.67-1.211-0.324-0.149-0.541-0.156-0.818-0.034z"/><path d="M15.146 8.985c-2.388 0.311-4.444 1.786-5.492 3.95-1.339 2.753-0.778 5.966 1.427 8.137 2.746 2.706 7.183 2.678 9.929-0.061 2.415-2.421 2.766-6.203 0.825-9.003-1.495-2.165-4.133-3.355-6.69-3.024z"/><path d="M0.854 15.085c-0.25 0.162-0.534 0.656-0.534 0.927s0.284 0.764 0.534 0.933l0.237 0.156 2.787-0.020c2.719-0.020 2.794-0.027 2.983-0.162 0.622-0.467 0.602-1.4-0.047-1.833-0.223-0.156-0.23-0.156-2.976-0.156s-2.753-0-2.983 0.155z"/><path d="M25.211 15.085c-0.67 0.446-0.67 1.407 0 1.853 0.223 0.156 0.23 0.156 2.969 0.156 2.618 0 2.753-0.007 2.969-0.135 0.264-0.162 0.467-0.474 0.521-0.825 0.061-0.338-0.176-0.839-0.5-1.048-0.23-0.156-0.244-0.156-2.983-0.156-2.746 0-2.753 0-2.976 0.156z"/><path d="M8.606 21.951c-0.108 0.075-1.048 0.981-2.076 2.016-1.596 1.61-1.874 1.921-1.914 2.137-0.095 0.507 0.23 1.048 0.744 1.238 0.602 0.237 0.602 0.237 2.726-1.88 1.055-1.048 1.962-1.995 2.022-2.104 0.068-0.135 0.095-0.311 0.074-0.528-0.061-0.568-0.44-0.94-1.015-0.981-0.27-0.020-0.405 0.007-0.561 0.102z"/><path d="M22.472 21.924c-0.541 0.237-0.805 0.954-0.548 1.447 0.054 0.101 0.96 1.042 2.016 2.090 2.124 2.117 2.124 2.117 2.726 1.88 0.514-0.189 0.839-0.731 0.744-1.238-0.041-0.216-0.318-0.528-1.948-2.164-1.048-1.055-1.988-1.962-2.090-2.016-0.23-0.115-0.629-0.122-0.9 0z"/><path d="M15.539 24.819c-0.602 0.311-0.575 0.162-0.595 3.328l-0.020 2.787 0.156 0.237c0.216 0.318 0.717 0.561 1.055 0.5 0.352-0.054 0.663-0.257 0.825-0.521 0.135-0.216 0.135-0.325 0.122-3.010-0.020-2.685-0.027-2.794-0.162-2.976-0.162-0.223-0.656-0.494-0.906-0.494-0.095 0-0.311 0.068-0.474 0.149z"/></svg>