<svg width="328" height="90" viewBox="0 0 328 90" fill="none" xmlns="http://www.w3.org/2000/svg"><path d="M165.898 33.5938H162.998L162.988 31.7773H165.557C165.954 31.7773 166.292 31.6992 166.572 31.543C166.852 31.3867 167.064 31.1589 167.207 30.8594C167.357 30.5599 167.432 30.1986 167.432 29.7754C167.432 29.3066 167.367 28.9258 167.236 28.6328C167.106 28.3333 166.901 28.1152 166.621 27.9785C166.348 27.8418 165.996 27.7734 165.566 27.7734H163.701V40H161.328V25.7812H165.566C166.23 25.7812 166.823 25.8594 167.344 26.0156C167.871 26.1654 168.317 26.3965 168.682 26.709C169.046 27.0215 169.323 27.4219 169.512 27.9102C169.707 28.3919 169.805 28.9648 169.805 29.6289C169.805 30.2083 169.681 30.7422 169.434 31.2305C169.186 31.7122 168.818 32.1094 168.33 32.4219C167.848 32.7279 167.249 32.9102 166.533 32.9688L165.898 33.5938ZM165.811 40H162.217L163.311 38.0176H165.811C166.234 38.0176 166.582 37.9264 166.855 37.7441C167.129 37.5618 167.334 37.3079 167.471 36.9824C167.607 36.6569 167.676 36.276 167.676 35.8398C167.676 35.3841 167.617 34.987 167.5 34.6484C167.383 34.3099 167.194 34.0495 166.934 33.8672C166.673 33.6849 166.328 33.5938 165.898 33.5938H163.506L163.525 31.7773H166.582L167.129 32.4707C167.812 32.4837 168.369 32.653 168.799 32.9785C169.229 33.2975 169.544 33.7109 169.746 34.2188C169.948 34.7266 170.049 35.2702 170.049 35.8496C170.049 36.7546 169.88 37.5163 169.541 38.1348C169.202 38.7467 168.717 39.2122 168.086 39.5312C167.461 39.8438 166.702 40 165.811 40ZM171.904 35.1465V34.2969C171.904 33.4766 172.005 32.7507 172.207 32.1191C172.409 31.4876 172.695 30.9603 173.066 30.5371C173.444 30.1074 173.887 29.7852 174.395 29.5703C174.902 29.349 175.462 29.2383 176.074 29.2383C176.699 29.2383 177.266 29.349 177.773 29.5703C178.288 29.7852 178.73 30.1074 179.102 30.5371C179.479 30.9603 179.769 31.4876 179.971 32.1191C180.173 32.7507 180.273 33.4766 180.273 34.2969V35.1465C180.273 35.9668 180.173 36.6927 179.971 37.3242C179.769 37.9557 179.479 38.4863 179.102 38.916C178.73 39.3392 178.291 39.6582 177.783 39.873C177.275 40.0879 176.712 40.1953 176.094 40.1953C175.482 40.1953 174.919 40.0879 174.404 39.873C173.896 39.6582 173.454 39.3392 173.076 38.916C172.699 38.4863 172.409 37.9557 172.207 37.3242C172.005 36.6927 171.904 35.9668 171.904 35.1465ZM174.18 34.2969V35.1465C174.18 35.6738 174.225 36.1361 174.316 36.5332C174.408 36.9238 174.538 37.2493 174.707 37.5098C174.876 37.7702 175.078 37.9655 175.312 38.0957C175.547 38.2259 175.807 38.291 176.094 38.291C176.413 38.291 176.689 38.2259 176.924 38.0957C177.165 37.9655 177.363 37.7702 177.52 37.5098C177.682 37.2493 177.803 36.9238 177.881 36.5332C177.959 36.1361 177.998 35.6738 177.998 35.1465V34.2969C177.998 33.776 177.952 33.3203 177.861 32.9297C177.77 32.5326 177.64 32.2038 177.471 31.9434C177.301 31.6764 177.096 31.4779 176.855 31.3477C176.621 31.2174 176.361 31.1523 176.074 31.1523C175.794 31.1523 175.537 31.2174 175.303 31.3477C175.075 31.4779 174.876 31.6764 174.707 31.9434C174.538 32.2038 174.408 32.5326 174.316 32.9297C174.225 33.3203 174.18 33.776 174.18 34.2969ZM187.129 37.2168C187.129 36.9954 187.064 36.8001 186.934 36.6309C186.81 36.4551 186.608 36.2826 186.328 36.1133C186.048 35.944 185.674 35.7617 185.205 35.5664C184.717 35.3646 184.284 35.1628 183.906 34.9609C183.529 34.7591 183.21 34.5378 182.949 34.2969C182.689 34.0495 182.49 33.7663 182.354 33.4473C182.217 33.1283 182.148 32.7572 182.148 32.334C182.148 31.8978 182.23 31.4941 182.393 31.123C182.555 30.752 182.79 30.4264 183.096 30.1465C183.402 29.86 183.77 29.6387 184.199 29.4824C184.629 29.3197 185.114 29.2383 185.654 29.2383C186.416 29.2383 187.067 29.3783 187.607 29.6582C188.154 29.9316 188.571 30.3158 188.857 30.8105C189.15 31.2988 189.297 31.862 189.297 32.5H187.021C187.021 32.2331 186.973 31.9922 186.875 31.7773C186.777 31.556 186.628 31.3802 186.426 31.25C186.224 31.1133 185.967 31.0449 185.654 31.0449C185.368 31.0449 185.127 31.1003 184.932 31.2109C184.743 31.3151 184.6 31.4583 184.502 31.6406C184.411 31.8164 184.365 32.015 184.365 32.2363C184.365 32.3991 184.395 32.5423 184.453 32.666C184.512 32.7897 184.609 32.9102 184.746 33.0273C184.883 33.138 185.065 33.252 185.293 33.3691C185.527 33.4863 185.824 33.6198 186.182 33.7695C186.891 34.043 187.48 34.3262 187.949 34.6191C188.418 34.9121 188.77 35.2539 189.004 35.6445C189.238 36.0352 189.355 36.5202 189.355 37.0996C189.355 37.5684 189.268 37.9915 189.092 38.3691C188.923 38.7467 188.675 39.0723 188.35 39.3457C188.031 39.6191 187.643 39.8307 187.188 39.9805C186.738 40.1237 186.237 40.1953 185.684 40.1953C184.857 40.1953 184.157 40.0326 183.584 39.707C183.018 39.375 182.588 38.9486 182.295 38.4277C182.002 37.9069 181.855 37.3568 181.855 36.7773H184.053C184.072 37.194 184.16 37.5195 184.316 37.7539C184.479 37.9883 184.684 38.151 184.932 38.2422C185.179 38.3268 185.436 38.3691 185.703 38.3691C186.022 38.3691 186.286 38.3268 186.494 38.2422C186.702 38.151 186.859 38.0176 186.963 37.8418C187.074 37.666 187.129 37.4577 187.129 37.2168ZM195.088 38.291C195.381 38.291 195.641 38.2292 195.869 38.1055C196.104 37.9818 196.289 37.7897 196.426 37.5293C196.562 37.2624 196.637 36.9173 196.65 36.4941H198.789C198.776 37.2428 198.604 37.8971 198.271 38.457C197.939 39.0104 197.497 39.4401 196.943 39.7461C196.396 40.0456 195.788 40.1953 195.117 40.1953C194.421 40.1953 193.812 40.0846 193.291 39.8633C192.777 39.6354 192.35 39.3066 192.012 38.877C191.673 38.4473 191.419 37.9264 191.25 37.3145C191.087 36.696 191.006 35.9896 191.006 35.1953V34.2383C191.006 33.4505 191.087 32.7474 191.25 32.1289C191.419 31.5104 191.673 30.9863 192.012 30.5566C192.35 30.127 192.777 29.8014 193.291 29.5801C193.805 29.3522 194.411 29.2383 195.107 29.2383C195.85 29.2383 196.491 29.3945 197.031 29.707C197.578 30.013 198.005 30.4622 198.311 31.0547C198.617 31.6471 198.776 32.373 198.789 33.2324H196.65C196.637 32.7767 196.569 32.3958 196.445 32.0898C196.322 31.7773 196.146 31.543 195.918 31.3867C195.697 31.2305 195.417 31.1523 195.078 31.1523C194.707 31.1523 194.401 31.224 194.16 31.3672C193.926 31.5039 193.743 31.7057 193.613 31.9727C193.49 32.2396 193.402 32.5651 193.35 32.9492C193.304 33.3268 193.281 33.7565 193.281 34.2383V35.1953C193.281 35.6901 193.304 36.1296 193.35 36.5137C193.395 36.8913 193.48 37.2135 193.604 37.4805C193.734 37.7474 193.919 37.9492 194.16 38.0859C194.401 38.2227 194.71 38.291 195.088 38.291ZM202.793 25V40H200.527V25H202.793ZM202.393 34.3359H201.67C201.663 33.6003 201.742 32.9232 201.904 32.3047C202.067 31.6862 202.301 31.1458 202.607 30.6836C202.913 30.2214 203.281 29.8665 203.711 29.6191C204.147 29.3652 204.629 29.2383 205.156 29.2383C205.592 29.2383 205.986 29.3132 206.338 29.4629C206.696 29.6061 207.002 29.834 207.256 30.1465C207.516 30.459 207.715 30.8691 207.852 31.377C207.988 31.8783 208.057 32.4902 208.057 33.2129V40H205.781V33.1934C205.781 32.6921 205.726 32.2949 205.615 32.002C205.511 31.709 205.355 31.4974 205.146 31.3672C204.938 31.237 204.674 31.1719 204.355 31.1719C204.043 31.1719 203.763 31.2565 203.516 31.4258C203.268 31.5885 203.06 31.8164 202.891 32.1094C202.728 32.3958 202.604 32.7311 202.52 33.1152C202.435 33.4928 202.393 33.8997 202.393 34.3359ZM222.051 35.3613H224.414C224.368 36.39 224.16 37.2656 223.789 37.9883C223.418 38.7044 222.884 39.2513 222.188 39.6289C221.497 40.0065 220.654 40.1953 219.658 40.1953C218.903 40.1953 218.226 40.0586 217.627 39.7852C217.035 39.5117 216.53 39.1178 216.113 38.6035C215.697 38.0827 215.378 37.4479 215.156 36.6992C214.941 35.9505 214.834 35.1009 214.834 34.1504V31.6309C214.834 30.6803 214.945 29.8307 215.166 29.082C215.394 28.3333 215.719 27.6986 216.143 27.1777C216.566 26.6569 217.08 26.263 217.686 25.9961C218.298 25.7227 218.988 25.5859 219.756 25.5859C220.739 25.5859 221.566 25.7747 222.236 26.1523C222.907 26.5299 223.424 27.0833 223.789 27.8125C224.154 28.5417 224.365 29.4303 224.424 30.4785H222.061C222.028 29.7689 221.93 29.2025 221.768 28.7793C221.611 28.3496 221.37 28.0404 221.045 27.8516C220.726 27.6628 220.296 27.5684 219.756 27.5684C219.307 27.5684 218.919 27.653 218.594 27.8223C218.275 27.9915 218.011 28.2454 217.803 28.584C217.601 28.916 217.448 29.3359 217.344 29.8438C217.246 30.3451 217.197 30.9342 217.197 31.6113V34.1504C217.197 34.8014 217.24 35.3776 217.324 35.8789C217.409 36.3802 217.546 36.8066 217.734 37.1582C217.923 37.5033 218.174 37.7669 218.486 37.9492C218.799 38.125 219.189 38.2129 219.658 38.2129C220.218 38.2129 220.664 38.125 220.996 37.9492C221.335 37.7734 221.585 37.4772 221.748 37.0605C221.911 36.6439 222.012 36.0775 222.051 35.3613ZM231.221 37.8516V32.5879C231.221 32.2233 231.169 31.9303 231.064 31.709C230.967 31.4876 230.82 31.3281 230.625 31.2305C230.436 31.1263 230.199 31.0742 229.912 31.0742C229.613 31.0742 229.359 31.1361 229.15 31.2598C228.949 31.3835 228.796 31.5527 228.691 31.7676C228.587 31.9759 228.535 32.2168 228.535 32.4902H226.26C226.26 32.0671 226.344 31.6602 226.514 31.2695C226.689 30.8789 226.94 30.5306 227.266 30.2246C227.591 29.9186 227.985 29.6777 228.447 29.502C228.91 29.3262 229.424 29.2383 229.99 29.2383C230.667 29.2383 231.27 29.3522 231.797 29.5801C232.324 29.8014 232.738 30.1628 233.037 30.6641C233.343 31.1589 233.496 31.8099 233.496 32.6172V37.5488C233.496 38.0371 233.525 38.4733 233.584 38.8574C233.649 39.235 233.737 39.5638 233.848 39.8438V40H231.533C231.429 39.7461 231.351 39.4206 231.299 39.0234C231.247 38.6263 231.221 38.2357 231.221 37.8516ZM231.523 33.5645L231.533 35.0391H230.439C230.114 35.0391 229.821 35.0846 229.561 35.1758C229.3 35.2604 229.079 35.3841 228.896 35.5469C228.721 35.7031 228.584 35.8952 228.486 36.123C228.395 36.3509 228.35 36.6016 228.35 36.875C228.35 37.207 228.395 37.4772 228.486 37.6855C228.584 37.8939 228.724 38.0501 228.906 38.1543C229.095 38.252 229.323 38.3008 229.59 38.3008C229.954 38.3008 230.27 38.2227 230.537 38.0664C230.811 37.9036 231.019 37.7083 231.162 37.4805C231.312 37.2526 231.37 37.0443 231.338 36.8555L231.855 37.8027C231.803 38.0501 231.706 38.3105 231.562 38.584C231.426 38.8574 231.247 39.1178 231.025 39.3652C230.804 39.6126 230.537 39.8145 230.225 39.9707C229.912 40.1204 229.551 40.1953 229.141 40.1953C228.548 40.1953 228.021 40.0716 227.559 39.8242C227.096 39.5768 226.732 39.222 226.465 38.7598C226.204 38.291 226.074 37.7311 226.074 37.0801C226.074 36.5527 226.162 36.0742 226.338 35.6445C226.514 35.2148 226.774 34.847 227.119 34.541C227.464 34.2285 227.897 33.9876 228.418 33.8184C228.945 33.6491 229.561 33.5645 230.264 33.5645H231.523ZM238.105 31.4746V40H235.83V29.4336H237.998L238.105 31.4746ZM240.654 29.3652L240.645 31.6113C240.514 31.5788 240.374 31.5592 240.225 31.5527C240.081 31.5397 239.938 31.5332 239.795 31.5332C239.482 31.5332 239.212 31.5885 238.984 31.6992C238.757 31.8099 238.564 31.9694 238.408 32.1777C238.252 32.3861 238.128 32.6367 238.037 32.9297C237.952 33.2227 237.9 33.5547 237.881 33.9258L237.393 33.9453C237.393 33.2812 237.445 32.666 237.549 32.0996C237.653 31.5267 237.809 31.0286 238.018 30.6055C238.232 30.1758 238.499 29.8405 238.818 29.5996C239.137 29.3587 239.508 29.2383 239.932 29.2383C240.049 29.2383 240.182 29.2513 240.332 29.2773C240.482 29.3034 240.589 29.3327 240.654 29.3652ZM253.125 36.3281C253.125 36.0352 253.092 35.7747 253.027 35.5469C252.969 35.3125 252.855 35.1009 252.686 34.9121C252.516 34.7233 252.275 34.5378 251.963 34.3555C251.657 34.1732 251.26 33.9876 250.771 33.7988C250.212 33.584 249.688 33.3496 249.199 33.0957C248.717 32.8353 248.291 32.5423 247.92 32.2168C247.555 31.8848 247.269 31.4974 247.061 31.0547C246.852 30.612 246.748 30.0977 246.748 29.5117C246.748 28.9323 246.849 28.4049 247.051 27.9297C247.259 27.4479 247.552 27.0345 247.93 26.6895C248.314 26.3379 248.77 26.0677 249.297 25.8789C249.824 25.6836 250.407 25.5859 251.045 25.5859C251.963 25.5859 252.747 25.7812 253.398 26.1719C254.056 26.5625 254.557 27.0866 254.902 27.7441C255.254 28.4017 255.43 29.1309 255.43 29.9316H253.066C253.066 29.4694 252.995 29.0592 252.852 28.7012C252.708 28.3431 252.487 28.0632 252.188 27.8613C251.888 27.6595 251.501 27.5586 251.025 27.5586C250.589 27.5586 250.228 27.6432 249.941 27.8125C249.661 27.9818 249.453 28.2129 249.316 28.5059C249.186 28.7988 249.121 29.1341 249.121 29.5117C249.121 29.7721 249.176 30.0098 249.287 30.2246C249.398 30.4329 249.557 30.625 249.766 30.8008C249.974 30.9766 250.228 31.1426 250.527 31.2988C250.827 31.4551 251.172 31.6048 251.562 31.748C252.227 31.9889 252.806 32.2559 253.301 32.5488C253.796 32.8418 254.202 33.1706 254.521 33.5352C254.847 33.8932 255.088 34.3001 255.244 34.7559C255.407 35.2116 255.488 35.7292 255.488 36.3086C255.488 36.8945 255.387 37.4284 255.186 37.9102C254.99 38.3854 254.704 38.7923 254.326 39.1309C253.949 39.4694 253.493 39.7331 252.959 39.9219C252.425 40.1042 251.826 40.1953 251.162 40.1953C250.55 40.1953 249.961 40.1042 249.395 39.9219C248.835 39.7396 248.333 39.4629 247.891 39.0918C247.448 38.7142 247.096 38.2422 246.836 37.6758C246.582 37.1094 246.455 36.4453 246.455 35.6836H248.828C248.828 36.1393 248.883 36.5299 248.994 36.8555C249.105 37.1745 249.264 37.4382 249.473 37.6465C249.688 37.8483 249.938 37.998 250.225 38.0957C250.518 38.1868 250.843 38.2324 251.201 38.2324C251.644 38.2324 252.005 38.1543 252.285 37.998C252.572 37.8353 252.783 37.6107 252.92 37.3242C253.057 37.0378 253.125 36.7057 253.125 36.3281ZM261.475 40.1953C260.791 40.1953 260.182 40.0944 259.648 39.8926C259.115 39.6842 258.662 39.3783 258.291 38.9746C257.92 38.5645 257.637 38.0632 257.441 37.4707C257.246 36.8717 257.148 36.1784 257.148 35.3906V34.375C257.148 33.4831 257.249 32.7148 257.451 32.0703C257.66 31.4193 257.946 30.8854 258.311 30.4688C258.675 30.0521 259.105 29.7428 259.6 29.541C260.101 29.3392 260.645 29.2383 261.23 29.2383C261.895 29.2383 262.471 29.3457 262.959 29.5605C263.447 29.7754 263.848 30.0977 264.16 30.5273C264.479 30.957 264.714 31.4876 264.863 32.1191C265.02 32.7507 265.098 33.4766 265.098 34.2969V35.4395H258.242V33.7207H262.852V33.4766C262.839 32.9948 262.78 32.5814 262.676 32.2363C262.572 31.8848 262.402 31.6178 262.168 31.4355C261.94 31.2467 261.624 31.1523 261.221 31.1523C260.928 31.1523 260.667 31.2077 260.439 31.3184C260.212 31.429 260.023 31.6081 259.873 31.8555C259.73 32.1029 259.619 32.4349 259.541 32.8516C259.463 33.2617 259.424 33.7695 259.424 34.375V35.3906C259.424 35.918 259.469 36.3639 259.561 36.7285C259.658 37.0931 259.801 37.3926 259.99 37.627C260.179 37.8548 260.407 38.0241 260.674 38.1348C260.947 38.2389 261.263 38.291 261.621 38.291C262.148 38.291 262.601 38.1934 262.979 37.998C263.363 37.7962 263.695 37.5358 263.975 37.2168L264.98 38.6133C264.792 38.8672 264.538 39.1178 264.219 39.3652C263.9 39.6061 263.512 39.8047 263.057 39.9609C262.607 40.1172 262.08 40.1953 261.475 40.1953ZM269.199 31.4746V40H266.924V29.4336H269.092L269.199 31.4746ZM271.748 29.3652L271.738 31.6113C271.608 31.5788 271.468 31.5592 271.318 31.5527C271.175 31.5397 271.032 31.5332 270.889 31.5332C270.576 31.5332 270.306 31.5885 270.078 31.6992C269.85 31.8099 269.658 31.9694 269.502 32.1777C269.346 32.3861 269.222 32.6367 269.131 32.9297C269.046 33.2227 268.994 33.5547 268.975 33.9258L268.486 33.9453C268.486 33.2812 268.538 32.666 268.643 32.0996C268.747 31.5267 268.903 31.0286 269.111 30.6055C269.326 30.1758 269.593 29.8405 269.912 29.5996C270.231 29.3587 270.602 29.2383 271.025 29.2383C271.143 29.2383 271.276 29.2513 271.426 29.2773C271.576 29.3034 271.683 29.3327 271.748 29.3652ZM276.436 38.1055L278.389 29.4336H280.742L277.734 40H276.279L276.436 38.1055ZM275.049 29.4336L277.07 38.1348L277.168 40H275.723L272.695 29.4336H275.049ZM284.688 29.4336V40H282.412V29.4336H284.688ZM282.295 26.6699C282.295 26.3053 282.406 26.0026 282.627 25.7617C282.848 25.5143 283.158 25.3906 283.555 25.3906C283.952 25.3906 284.261 25.5143 284.482 25.7617C284.704 26.0026 284.814 26.3053 284.814 26.6699C284.814 27.0215 284.704 27.3177 284.482 27.5586C284.261 27.7995 283.952 27.9199 283.555 27.9199C283.158 27.9199 282.848 27.7995 282.627 27.5586C282.406 27.3177 282.295 27.0215 282.295 26.6699ZM290.869 38.291C291.162 38.291 291.423 38.2292 291.65 38.1055C291.885 37.9818 292.07 37.7897 292.207 37.5293C292.344 37.2624 292.419 36.9173 292.432 36.4941H294.57C294.557 37.2428 294.385 37.8971 294.053 38.457C293.721 39.0104 293.278 39.4401 292.725 39.7461C292.178 40.0456 291.569 40.1953 290.898 40.1953C290.202 40.1953 289.593 40.0846 289.072 39.8633C288.558 39.6354 288.132 39.3066 287.793 38.877C287.454 38.4473 287.201 37.9264 287.031 37.3145C286.868 36.696 286.787 35.9896 286.787 35.1953V34.2383C286.787 33.4505 286.868 32.7474 287.031 32.1289C287.201 31.5104 287.454 30.9863 287.793 30.5566C288.132 30.127 288.558 29.8014 289.072 29.5801C289.587 29.3522 290.192 29.2383 290.889 29.2383C291.631 29.2383 292.272 29.3945 292.812 29.707C293.359 30.013 293.786 30.4622 294.092 31.0547C294.398 31.6471 294.557 32.373 294.57 33.2324H292.432C292.419 32.7767 292.35 32.3958 292.227 32.0898C292.103 31.7773 291.927 31.543 291.699 31.3867C291.478 31.2305 291.198 31.1523 290.859 31.1523C290.488 31.1523 290.182 31.224 289.941 31.3672C289.707 31.5039 289.525 31.7057 289.395 31.9727C289.271 32.2396 289.183 32.5651 289.131 32.9492C289.085 33.3268 289.062 33.7565 289.062 34.2383V35.1953C289.062 35.6901 289.085 36.1296 289.131 36.5137C289.176 36.8913 289.261 37.2135 289.385 37.4805C289.515 37.7474 289.701 37.9492 289.941 38.0859C290.182 38.2227 290.492 38.291 290.869 38.291ZM300.381 40.1953C299.697 40.1953 299.089 40.0944 298.555 39.8926C298.021 39.6842 297.568 39.3783 297.197 38.9746C296.826 38.5645 296.543 38.0632 296.348 37.4707C296.152 36.8717 296.055 36.1784 296.055 35.3906V34.375C296.055 33.4831 296.156 32.7148 296.357 32.0703C296.566 31.4193 296.852 30.8854 297.217 30.4688C297.581 30.0521 298.011 29.7428 298.506 29.541C299.007 29.3392 299.551 29.2383 300.137 29.2383C300.801 29.2383 301.377 29.3457 301.865 29.5605C302.354 29.7754 302.754 30.0977 303.066 30.5273C303.385 30.957 303.62 31.4876 303.77 32.1191C303.926 32.7507 304.004 33.4766 304.004 34.2969V35.4395H297.148V33.7207H301.758V33.4766C301.745 32.9948 301.686 32.5814 301.582 32.2363C301.478 31.8848 301.309 31.6178 301.074 31.4355C300.846 31.2467 300.531 31.1523 300.127 31.1523C299.834 31.1523 299.574 31.2077 299.346 31.3184C299.118 31.429 298.929 31.6081 298.779 31.8555C298.636 32.1029 298.525 32.4349 298.447 32.8516C298.369 33.2617 298.33 33.7695 298.33 34.375V35.3906C298.33 35.918 298.376 36.3639 298.467 36.7285C298.564 37.0931 298.708 37.3926 298.896 37.627C299.085 37.8548 299.313 38.0241 299.58 38.1348C299.854 38.2389 300.169 38.291 300.527 38.291C301.055 38.291 301.507 38.1934 301.885 37.998C302.269 37.7962 302.601 37.5358 302.881 37.2168L303.887 38.6133C303.698 38.8672 303.444 39.1178 303.125 39.3652C302.806 39.6061 302.419 39.8047 301.963 39.9609C301.514 40.1172 300.986 40.1953 300.381 40.1953Z" fill="#006EAD"/><path d="M166.23 51.7344L162.793 64H160.312L164.824 49.7812H166.367L166.23 51.7344ZM168.975 64L165.527 51.7344L165.361 49.7812H166.934L171.465 64H168.975ZM169.033 58.7168V60.709H162.412V58.7168H169.033ZM176.992 53.4336V55.1914H171.807V53.4336H176.992ZM173.223 50.8457H175.488V61.0508C175.488 61.3763 175.524 61.6237 175.596 61.793C175.667 61.9622 175.768 62.0762 175.898 62.1348C176.029 62.1934 176.182 62.2227 176.357 62.2227C176.488 62.2227 176.615 62.2129 176.738 62.1934C176.868 62.1673 176.963 62.1445 177.021 62.125V63.9609C176.852 64.026 176.657 64.0814 176.436 64.127C176.214 64.1725 175.947 64.1953 175.635 64.1953C175.173 64.1953 174.759 64.1009 174.395 63.9121C174.03 63.7168 173.743 63.401 173.535 62.9648C173.327 62.5221 173.223 61.9362 173.223 61.207V50.8457ZM181.172 49V64H178.896V49H181.172ZM188.506 61.8516V56.5879C188.506 56.2233 188.454 55.9303 188.35 55.709C188.252 55.4876 188.105 55.3281 187.91 55.2305C187.721 55.1263 187.484 55.0742 187.197 55.0742C186.898 55.0742 186.644 55.1361 186.436 55.2598C186.234 55.3835 186.081 55.5527 185.977 55.7676C185.872 55.9759 185.82 56.2168 185.82 56.4902H183.545C183.545 56.0671 183.63 55.6602 183.799 55.2695C183.975 54.8789 184.225 54.5306 184.551 54.2246C184.876 53.9186 185.27 53.6777 185.732 53.502C186.195 53.3262 186.709 53.2383 187.275 53.2383C187.952 53.2383 188.555 53.3522 189.082 53.5801C189.609 53.8014 190.023 54.1628 190.322 54.6641C190.628 55.1589 190.781 55.8099 190.781 56.6172V61.5488C190.781 62.0371 190.811 62.4733 190.869 62.8574C190.934 63.235 191.022 63.5638 191.133 63.8438V64H188.818C188.714 63.7461 188.636 63.4206 188.584 63.0234C188.532 62.6263 188.506 62.2357 188.506 61.8516ZM188.809 57.5645L188.818 59.0391H187.725C187.399 59.0391 187.106 59.0846 186.846 59.1758C186.585 59.2604 186.364 59.3841 186.182 59.5469C186.006 59.7031 185.869 59.8952 185.771 60.123C185.68 60.3509 185.635 60.6016 185.635 60.875C185.635 61.207 185.68 61.4772 185.771 61.6855C185.869 61.8939 186.009 62.0501 186.191 62.1543C186.38 62.252 186.608 62.3008 186.875 62.3008C187.24 62.3008 187.555 62.2227 187.822 62.0664C188.096 61.9036 188.304 61.7083 188.447 61.4805C188.597 61.2526 188.656 61.0443 188.623 60.8555L189.141 61.8027C189.089 62.0501 188.991 62.3105 188.848 62.584C188.711 62.8574 188.532 63.1178 188.311 63.3652C188.089 63.6126 187.822 63.8145 187.51 63.9707C187.197 64.1204 186.836 64.1953 186.426 64.1953C185.833 64.1953 185.306 64.0716 184.844 63.8242C184.382 63.5768 184.017 63.222 183.75 62.7598C183.49 62.291 183.359 61.7311 183.359 61.0801C183.359 60.5527 183.447 60.0742 183.623 59.6445C183.799 59.2148 184.059 58.847 184.404 58.541C184.749 58.2285 185.182 57.9876 185.703 57.8184C186.23 57.6491 186.846 57.5645 187.549 57.5645H188.809ZM195.361 55.6895V64H193.086V53.4336H195.225L195.361 55.6895ZM194.951 58.3359H194.229C194.222 57.5742 194.303 56.8809 194.473 56.2559C194.642 55.6309 194.883 55.0938 195.195 54.6445C195.514 54.1953 195.892 53.8503 196.328 53.6094C196.771 53.362 197.262 53.2383 197.803 53.2383C198.219 53.2383 198.6 53.3099 198.945 53.4531C199.297 53.5898 199.596 53.8145 199.844 54.127C200.091 54.4395 200.28 54.8464 200.41 55.3477C200.547 55.849 200.615 56.4609 200.615 57.1836V64H198.34V57.1641C198.34 56.6693 198.285 56.2786 198.174 55.9922C198.07 55.6992 197.913 55.4909 197.705 55.3672C197.497 55.237 197.233 55.1719 196.914 55.1719C196.621 55.1719 196.351 55.2565 196.104 55.4258C195.863 55.5885 195.654 55.8164 195.479 56.1094C195.309 56.3958 195.179 56.7311 195.088 57.1152C194.997 57.4928 194.951 57.8997 194.951 58.3359ZM207.168 53.4336V55.1914H201.982V53.4336H207.168ZM203.398 50.8457H205.664V61.0508C205.664 61.3763 205.7 61.6237 205.771 61.793C205.843 61.9622 205.944 62.0762 206.074 62.1348C206.204 62.1934 206.357 62.2227 206.533 62.2227C206.663 62.2227 206.79 62.2129 206.914 62.1934C207.044 62.1673 207.139 62.1445 207.197 62.125V63.9609C207.028 64.026 206.833 64.0814 206.611 64.127C206.39 64.1725 206.123 64.1953 205.811 64.1953C205.348 64.1953 204.935 64.1009 204.57 63.9121C204.206 63.7168 203.919 63.401 203.711 62.9648C203.503 62.5221 203.398 61.9362 203.398 61.207V50.8457ZM214.541 49.7812H216.699L219.971 60.3574L223.232 49.7812H225.234L220.859 64H219.072L214.541 49.7812ZM213.73 49.7812H215.723L216.045 58.834V64H213.73V49.7812ZM224.199 49.7812H226.201V64H223.887V58.834L224.199 49.7812ZM228.35 59.1465V58.2969C228.35 57.4766 228.451 56.7507 228.652 56.1191C228.854 55.4876 229.141 54.9603 229.512 54.5371C229.889 54.1074 230.332 53.7852 230.84 53.5703C231.348 53.349 231.908 53.2383 232.52 53.2383C233.145 53.2383 233.711 53.349 234.219 53.5703C234.733 53.7852 235.176 54.1074 235.547 54.5371C235.924 54.9603 236.214 55.4876 236.416 56.1191C236.618 56.7507 236.719 57.4766 236.719 58.2969V59.1465C236.719 59.9668 236.618 60.6927 236.416 61.3242C236.214 61.9557 235.924 62.4863 235.547 62.916C235.176 63.3392 234.736 63.6582 234.229 63.873C233.721 64.0879 233.158 64.1953 232.539 64.1953C231.927 64.1953 231.364 64.0879 230.85 63.873C230.342 63.6582 229.899 63.3392 229.521 62.916C229.144 62.4863 228.854 61.9557 228.652 61.3242C228.451 60.6927 228.35 59.9668 228.35 59.1465ZM230.625 58.2969V59.1465C230.625 59.6738 230.671 60.1361 230.762 60.5332C230.853 60.9238 230.983 61.2493 231.152 61.5098C231.322 61.7702 231.523 61.9655 231.758 62.0957C231.992 62.2259 232.253 62.291 232.539 62.291C232.858 62.291 233.135 62.2259 233.369 62.0957C233.61 61.9655 233.809 61.7702 233.965 61.5098C234.128 61.2493 234.248 60.9238 234.326 60.5332C234.404 60.1361 234.443 59.6738 234.443 59.1465V58.2969C234.443 57.776 234.398 57.3203 234.307 56.9297C234.215 56.5326 234.085 56.2038 233.916 55.9434C233.747 55.6764 233.542 55.4779 233.301 55.3477C233.066 55.2174 232.806 55.1523 232.52 55.1523C232.24 55.1523 231.982 55.2174 231.748 55.3477C231.52 55.4779 231.322 55.6764 231.152 55.9434C230.983 56.2038 230.853 56.5326 230.762 56.9297C230.671 57.3203 230.625 57.776 230.625 58.2969ZM242.949 53.4336V55.1914H237.764V53.4336H242.949ZM239.18 50.8457H241.445V61.0508C241.445 61.3763 241.481 61.6237 241.553 61.793C241.624 61.9622 241.725 62.0762 241.855 62.1348C241.986 62.1934 242.139 62.2227 242.314 62.2227C242.445 62.2227 242.572 62.2129 242.695 62.1934C242.826 62.1673 242.92 62.1445 242.979 62.125V63.9609C242.809 64.026 242.614 64.0814 242.393 64.127C242.171 64.1725 241.904 64.1953 241.592 64.1953C241.13 64.1953 240.716 64.1009 240.352 63.9121C239.987 63.7168 239.701 63.401 239.492 62.9648C239.284 62.5221 239.18 61.9362 239.18 61.207V50.8457ZM244.131 59.1465V58.2969C244.131 57.4766 244.232 56.7507 244.434 56.1191C244.635 55.4876 244.922 54.9603 245.293 54.5371C245.671 54.1074 246.113 53.7852 246.621 53.5703C247.129 53.349 247.689 53.2383 248.301 53.2383C248.926 53.2383 249.492 53.349 250 53.5703C250.514 53.7852 250.957 54.1074 251.328 54.5371C251.706 54.9603 251.995 55.4876 252.197 56.1191C252.399 56.7507 252.5 57.4766 252.5 58.2969V59.1465C252.5 59.9668 252.399 60.6927 252.197 61.3242C251.995 61.9557 251.706 62.4863 251.328 62.916C250.957 63.3392 250.518 63.6582 250.01 63.873C249.502 64.0879 248.939 64.1953 248.32 64.1953C247.708 64.1953 247.145 64.0879 246.631 63.873C246.123 63.6582 245.68 63.3392 245.303 62.916C244.925 62.4863 244.635 61.9557 244.434 61.3242C244.232 60.6927 244.131 59.9668 244.131 59.1465ZM246.406 58.2969V59.1465C246.406 59.6738 246.452 60.1361 246.543 60.5332C246.634 60.9238 246.764 61.2493 246.934 61.5098C247.103 61.7702 247.305 61.9655 247.539 62.0957C247.773 62.2259 248.034 62.291 248.32 62.291C248.639 62.291 248.916 62.2259 249.15 62.0957C249.391 61.9655 249.59 61.7702 249.746 61.5098C249.909 61.2493 250.029 60.9238 250.107 60.5332C250.186 60.1361 250.225 59.6738 250.225 59.1465V58.2969C250.225 57.776 250.179 57.3203 250.088 56.9297C249.997 56.5326 249.867 56.2038 249.697 55.9434C249.528 55.6764 249.323 55.4779 249.082 55.3477C248.848 55.2174 248.587 55.1523 248.301 55.1523C248.021 55.1523 247.764 55.2174 247.529 55.3477C247.301 55.4779 247.103 55.6764 246.934 55.9434C246.764 56.2038 246.634 56.5326 246.543 56.9297C246.452 57.3203 246.406 57.776 246.406 58.2969ZM256.738 55.4746V64H254.463V53.4336H256.631L256.738 55.4746ZM259.287 53.3652L259.277 55.6113C259.147 55.5788 259.007 55.5592 258.857 55.5527C258.714 55.5397 258.571 55.5332 258.428 55.5332C258.115 55.5332 257.845 55.5885 257.617 55.6992C257.389 55.8099 257.197 55.9694 257.041 56.1777C256.885 56.3861 256.761 56.6367 256.67 56.9297C256.585 57.2227 256.533 57.5547 256.514 57.9258L256.025 57.9453C256.025 57.2812 256.077 56.666 256.182 56.0996C256.286 55.5267 256.442 55.0286 256.65 54.6055C256.865 54.1758 257.132 53.8405 257.451 53.5996C257.77 53.3587 258.141 53.2383 258.564 53.2383C258.682 53.2383 258.815 53.2513 258.965 53.2773C259.115 53.3034 259.222 53.3327 259.287 53.3652ZM265.742 61.2168C265.742 60.9954 265.677 60.8001 265.547 60.6309C265.423 60.4551 265.221 60.2826 264.941 60.1133C264.661 59.944 264.287 59.7617 263.818 59.5664C263.33 59.3646 262.897 59.1628 262.52 58.9609C262.142 58.7591 261.823 58.5378 261.562 58.2969C261.302 58.0495 261.104 57.7663 260.967 57.4473C260.83 57.1283 260.762 56.7572 260.762 56.334C260.762 55.8978 260.843 55.4941 261.006 55.123C261.169 54.752 261.403 54.4264 261.709 54.1465C262.015 53.86 262.383 53.6387 262.812 53.4824C263.242 53.3197 263.727 53.2383 264.268 53.2383C265.029 53.2383 265.68 53.3783 266.221 53.6582C266.768 53.9316 267.184 54.3158 267.471 54.8105C267.764 55.2988 267.91 55.862 267.91 56.5H265.635C265.635 56.2331 265.586 55.9922 265.488 55.7773C265.391 55.556 265.241 55.3802 265.039 55.25C264.837 55.1133 264.58 55.0449 264.268 55.0449C263.981 55.0449 263.74 55.1003 263.545 55.2109C263.356 55.3151 263.213 55.4583 263.115 55.6406C263.024 55.8164 262.979 56.015 262.979 56.2363C262.979 56.3991 263.008 56.5423 263.066 56.666C263.125 56.7897 263.223 56.9102 263.359 57.0273C263.496 57.138 263.678 57.252 263.906 57.3691C264.141 57.4863 264.437 57.6198 264.795 57.7695C265.505 58.043 266.094 58.3262 266.562 58.6191C267.031 58.9121 267.383 59.2539 267.617 59.6445C267.852 60.0352 267.969 60.5202 267.969 61.0996C267.969 61.5684 267.881 61.9915 267.705 62.3691C267.536 62.7467 267.288 63.0723 266.963 63.3457C266.644 63.6191 266.257 63.8307 265.801 63.9805C265.352 64.1237 264.85 64.1953 264.297 64.1953C263.47 64.1953 262.77 64.0326 262.197 63.707C261.631 63.375 261.201 62.9486 260.908 62.4277C260.615 61.9069 260.469 61.3568 260.469 60.7773H262.666C262.686 61.194 262.773 61.5195 262.93 61.7539C263.092 61.9883 263.298 62.151 263.545 62.2422C263.792 62.3268 264.049 62.3691 264.316 62.3691C264.635 62.3691 264.899 62.3268 265.107 62.2422C265.316 62.151 265.472 62.0176 265.576 61.8418C265.687 61.666 265.742 61.4577 265.742 61.2168ZM282.666 62.0176V64H276.494V62.0176H282.666ZM277.119 49.7812V64H274.746V49.7812H277.119ZM281.836 55.6992V57.6523H276.494V55.6992H281.836ZM282.607 49.7812V51.7734H276.494V49.7812H282.607ZM286.689 55.6895V64H284.414V53.4336H286.553L286.689 55.6895ZM286.279 58.3359H285.557C285.55 57.5742 285.632 56.8809 285.801 56.2559C285.97 55.6309 286.211 55.0938 286.523 54.6445C286.842 54.1953 287.22 53.8503 287.656 53.6094C288.099 53.362 288.59 53.2383 289.131 53.2383C289.548 53.2383 289.928 53.3099 290.273 53.4531C290.625 53.5898 290.924 53.8145 291.172 54.127C291.419 54.4395 291.608 54.8464 291.738 55.3477C291.875 55.849 291.943 56.4609 291.943 57.1836V64H289.668V57.1641C289.668 56.6693 289.613 56.2786 289.502 55.9922C289.398 55.6992 289.242 55.4909 289.033 55.3672C288.825 55.237 288.561 55.1719 288.242 55.1719C287.949 55.1719 287.679 55.2565 287.432 55.4258C287.191 55.5885 286.982 55.8164 286.807 56.1094C286.637 56.3958 286.507 56.7311 286.416 57.1152C286.325 57.4928 286.279 57.8997 286.279 58.3359ZM298.271 64.1953C297.588 64.1953 296.979 64.0944 296.445 63.8926C295.911 63.6842 295.459 63.3783 295.088 62.9746C294.717 62.5645 294.434 62.0632 294.238 61.4707C294.043 60.8717 293.945 60.1784 293.945 59.3906V58.375C293.945 57.4831 294.046 56.7148 294.248 56.0703C294.456 55.4193 294.743 54.8854 295.107 54.4688C295.472 54.0521 295.902 53.7428 296.396 53.541C296.898 53.3392 297.441 53.2383 298.027 53.2383C298.691 53.2383 299.268 53.3457 299.756 53.5605C300.244 53.7754 300.645 54.0977 300.957 54.5273C301.276 54.957 301.51 55.4876 301.66 56.1191C301.816 56.7507 301.895 57.4766 301.895 58.2969V59.4395H295.039V57.7207H299.648V57.4766C299.635 56.9948 299.577 56.5814 299.473 56.2363C299.368 55.8848 299.199 55.6178 298.965 55.4355C298.737 55.2467 298.421 55.1523 298.018 55.1523C297.725 55.1523 297.464 55.2077 297.236 55.3184C297.008 55.429 296.82 55.6081 296.67 55.8555C296.527 56.1029 296.416 56.4349 296.338 56.8516C296.26 57.2617 296.221 57.7695 296.221 58.375V59.3906C296.221 59.918 296.266 60.3639 296.357 60.7285C296.455 61.0931 296.598 61.3926 296.787 61.627C296.976 61.8548 297.204 62.0241 297.471 62.1348C297.744 62.2389 298.06 62.291 298.418 62.291C298.945 62.291 299.398 62.1934 299.775 61.998C300.16 61.7962 300.492 61.5358 300.771 61.2168L301.777 62.6133C301.589 62.8672 301.335 63.1178 301.016 63.3652C300.697 63.6061 300.309 63.8047 299.854 63.9609C299.404 64.1172 298.877 64.1953 298.271 64.1953ZM305.996 55.4746V64H303.721V53.4336H305.889L305.996 55.4746ZM308.545 53.3652L308.535 55.6113C308.405 55.5788 308.265 55.5592 308.115 55.5527C307.972 55.5397 307.829 55.5332 307.686 55.5332C307.373 55.5332 307.103 55.5885 306.875 55.6992C306.647 55.8099 306.455 55.9694 306.299 56.1777C306.143 56.3861 306.019 56.6367 305.928 56.9297C305.843 57.2227 305.791 57.5547 305.771 57.9258L305.283 57.9453C305.283 57.2812 305.335 56.666 305.439 56.0996C305.544 55.5267 305.7 55.0286 305.908 54.6055C306.123 54.1758 306.39 53.8405 306.709 53.5996C307.028 53.3587 307.399 53.2383 307.822 53.2383C307.939 53.2383 308.073 53.2513 308.223 53.2773C308.372 53.3034 308.48 53.3327 308.545 53.3652ZM315.547 53.4336H317.607V64.0391C317.607 64.9896 317.432 65.7676 317.08 66.373C316.735 66.985 316.253 67.4375 315.635 67.7305C315.016 68.0234 314.3 68.1699 313.486 68.1699C313.187 68.1699 312.832 68.1211 312.422 68.0234C312.012 67.9258 311.611 67.7826 311.221 67.5938C310.83 67.4049 310.505 67.1706 310.244 66.8906L311.074 65.3086C311.38 65.6211 311.742 65.862 312.158 66.0312C312.575 66.207 312.975 66.2949 313.359 66.2949C313.776 66.2949 314.128 66.2233 314.414 66.0801C314.707 65.9434 314.932 65.7122 315.088 65.3867C315.244 65.0677 315.322 64.6348 315.322 64.0879V55.8262L315.547 53.4336ZM309.57 59.1465V58.3164C309.57 57.4505 309.652 56.7018 309.814 56.0703C309.977 55.4323 310.212 54.9017 310.518 54.4785C310.824 54.0553 311.198 53.7428 311.641 53.541C312.083 53.3392 312.578 53.2383 313.125 53.2383C313.691 53.2383 314.17 53.3587 314.561 53.5996C314.958 53.834 315.28 54.1693 315.527 54.6055C315.781 55.0417 315.98 55.5625 316.123 56.168C316.266 56.7669 316.37 57.4375 316.436 58.1797V59.332C316.37 60.0482 316.26 60.7057 316.104 61.3047C315.947 61.8971 315.736 62.4082 315.469 62.8379C315.208 63.2676 314.883 63.6029 314.492 63.8438C314.108 64.0781 313.646 64.1953 313.105 64.1953C312.565 64.1953 312.077 64.0879 311.641 63.873C311.204 63.6582 310.83 63.3392 310.518 62.916C310.212 62.4928 309.977 61.9688 309.814 61.3438C309.652 60.7122 309.57 59.9798 309.57 59.1465ZM311.846 58.3164V59.1465C311.846 59.6868 311.882 60.1523 311.953 60.543C312.031 60.9336 312.145 61.2559 312.295 61.5098C312.445 61.7572 312.64 61.9427 312.881 62.0664C313.122 62.1836 313.408 62.2422 313.74 62.2422C314.176 62.2422 314.528 62.138 314.795 61.9297C315.068 61.7214 315.277 61.4414 315.42 61.0898C315.57 60.7318 315.674 60.3346 315.732 59.8984V57.623C315.7 57.278 315.635 56.959 315.537 56.666C315.446 56.3665 315.319 56.1061 315.156 55.8848C315 55.6634 314.805 55.4909 314.57 55.3672C314.342 55.237 314.072 55.1719 313.76 55.1719C313.434 55.1719 313.148 55.237 312.9 55.3672C312.66 55.4909 312.461 55.6829 312.305 55.9434C312.148 56.1973 312.031 56.5228 311.953 56.9199C311.882 57.3105 311.846 57.776 311.846 58.3164ZM322.461 62.8379L324.727 53.4336H327.119L323.633 65.6016C323.555 65.8685 323.444 66.1549 323.301 66.4609C323.164 66.7669 322.985 67.0566 322.764 67.3301C322.549 67.61 322.279 67.8346 321.953 68.0039C321.634 68.1797 321.253 68.2676 320.811 68.2676C320.628 68.2676 320.452 68.2513 320.283 68.2188C320.114 68.1862 319.951 68.1471 319.795 68.1016V66.2656C319.847 66.2721 319.906 66.2786 319.971 66.2852C320.036 66.2917 320.094 66.2949 320.146 66.2949C320.465 66.2949 320.729 66.2461 320.938 66.1484C321.146 66.0573 321.318 65.9076 321.455 65.6992C321.592 65.4974 321.712 65.2272 321.816 64.8887L322.461 62.8379ZM321.455 53.4336L323.311 61.2949L323.711 63.8438L322.148 64.2441L319.004 53.4336H321.455Z" fill="#1D1D1D"/><g clip-path="url(#clip0_2003_1091)"><path d="M127.323 38.6881C123.465 36.3154 119.221 35.0063 114.802 34.1998C105.567 32.4933 96.3543 32.9959 87.1421 34.3985C86.4874 34.5037 85.447 34.1648 85.0612 33.6622C77.9533 24.4518 68.098 21.6817 57.2257 22.757C49.1007 23.5518 41.0927 25.6323 33.0612 27.3037C29.8112 27.9816 26.643 29.057 23.4281 29.957C33.938 29.5011 43.7932 33.2414 53.9874 34.4219C49.4164 32.9258 44.7284 31.8271 40.4614 29.244C40.7653 28.9518 40.8822 28.7765 41.0342 28.7063C42.2968 28.2037 43.536 27.6427 44.8337 27.257C53.8121 24.5687 62.7788 24.0427 71.6754 27.5609C75.8022 29.1972 79.3912 31.6284 82.2087 35.5323C81.1448 35.7778 80.3499 35.9998 79.5432 36.1284C71.4533 37.4726 63.3516 36.9583 55.3085 35.9414C46.7743 34.8661 38.322 33.218 29.7995 32.0375C23.545 31.1726 17.2554 31.0674 11.0594 32.6687C6.50002 33.8375 2.61873 36.0933 0.0117188 40.1258C10.3229 34.3167 21.2069 32.7739 32.6988 35.1466C39.8418 36.6193 46.9263 38.4661 54.116 39.5765C63.7842 41.0842 73.5342 40.9089 83.1205 38.8635C91.7716 37.0167 100.411 35.4855 109.296 36.0349C116.123 36.4557 122.787 37.5778 128.971 40.6868C129.287 40.8505 129.649 40.9089 129.977 41.0258C129.217 40.0206 128.305 39.2959 127.323 38.6881Z" fill="#1D1D1D"/><path d="M76.679 8.34537C76.7141 8.35705 76.7608 8.36874 76.7959 8.36874C76.7491 8.27523 76.7374 8.15835 76.7491 7.99472C76.9829 5.63368 77.17 3.27263 77.4038 0.911595C77.4389 0.584322 77.3453 0.455749 77.0063 0.420684C75.8489 0.327178 74.715 0.175233 73.5693 0.0583496C72.0144 0.0583496 70.4712 0.0583496 68.9164 0.0583496C68.2968 0.116791 67.6655 0.186918 67.0459 0.24536C66.3561 0.31549 65.6664 0.350557 64.965 0.467441C64.8013 0.490817 64.5207 0.712895 64.3921 0.876531C62.5684 3.26095 60.7446 5.64536 58.9443 8.04147C58.8391 8.18173 58.7338 8.29861 58.6169 8.38043C54.081 9.36225 49.5099 10.9869 45.0909 13.1493C44.9856 13.1493 44.8921 13.1142 44.7986 13.0558C43.0333 11.922 41.2446 10.7999 39.4793 9.66614C39.2572 9.52588 39.0585 9.52588 38.7078 9.73627C34.4991 12.1908 30.5009 15.0077 26.7015 18.1635C26.3858 18.4324 26.304 18.6194 26.3274 18.8999C26.5027 21.1324 26.6664 23.3765 26.8417 25.6207C26.8534 25.761 26.8417 25.8778 26.7833 26.0064C26.3858 26.3921 25.9883 26.7778 25.6025 27.1752C25.6727 27.1519 25.7545 27.1285 25.8364 27.1051C28.0342 26.4506 30.3139 25.7726 32.6403 25.2817C34.581 24.8843 36.5684 24.4402 38.4856 24.0194C39.0585 23.8908 39.6313 23.7622 40.2042 23.6454C49.8256 16.3051 61.3642 11.6648 72.0495 11.6648C81.1682 11.6648 88.0423 15.0428 91.9587 20.6064C89.1997 14.5986 83.9506 10.2272 76.679 8.34537Z" fill="#006EAD"/><path d="M42.402 78.3466C30.4074 78.3466 22.2823 72.4908 19.6753 63.5142H9.23559C9.27066 63.6895 9.29404 63.8531 9.32911 64.0167C9.28235 64.1219 9.21221 64.2155 9.10699 64.3323C7.01437 66.5765 4.93343 68.844 2.85249 71.0882C2.5953 71.3687 2.51346 71.5674 2.60699 71.8245C3.72929 74.9804 5.3426 77.7973 7.45861 80.2518C7.63397 80.4505 7.82102 80.4622 8.17174 80.3219C10.884 79.1882 13.6079 78.0778 16.3201 76.9557C16.4838 76.8856 16.6124 76.8505 16.7293 76.8505C19.3129 79.0129 22.5045 80.6492 26.2104 81.6194L25.6025 89.1116C25.5791 89.3453 25.5791 89.509 25.8597 89.544C28.1277 89.8245 30.4541 89.9999 32.8975 89.9064C34.5809 89.8362 36.3111 89.6609 38.0063 89.544C38.3336 89.5206 38.4622 89.3103 38.6259 89.0882C40.4379 86.7038 42.2617 84.3077 44.062 81.9233C44.1556 81.7947 44.2491 81.7012 44.3426 81.631C44.2958 81.6427 44.2374 81.6544 44.1906 81.6661C53.0638 79.7843 62.0422 75.4246 69.91 69.4051C61.259 74.957 51.509 78.3466 42.402 78.3466Z" fill="#006EAD"/><path d="M4.67529 42.6924H12.6834C16.5647 42.6924 18.2832 44.621 18.2832 46.8768C18.2832 48.595 17.383 49.8222 16.0854 50.3482C17.2895 50.7807 18.7275 51.9028 18.7275 53.9833C18.7275 56.6249 16.7517 58.7755 12.7418 58.7755H4.67529V42.6924ZM11.8884 48.8989C13.1861 48.8989 13.7122 48.2326 13.7122 47.356C13.7122 46.3625 12.9873 45.8716 11.8534 45.8716H9.25803V48.8989H11.8884ZM9.25803 55.6197H11.6663C13.2212 55.6197 13.8758 54.9417 13.8758 53.7963C13.8758 52.7794 13.2562 52.0664 11.7481 52.0664H9.24634V55.6197H9.25803Z" fill="#1D1D1D"/><path d="M36.7247 53.5041C36.1402 56.8703 33.6617 59.1028 29.2427 59.1028C23.9702 59.1028 21.4216 55.5495 21.4216 50.8742C21.4216 46.3158 23.9351 42.4119 29.4765 42.4119C34.2112 42.4119 36.3623 45.1586 36.6779 47.9521H31.99C31.7795 46.7833 31.1015 45.7313 29.3596 45.7313C27.0682 45.7313 26.2849 47.9054 26.2849 50.7223C26.2849 53.2703 26.9396 55.795 29.418 55.795C31.2885 55.795 31.8146 54.4275 32.025 53.5275H36.7247V53.5041Z" fill="#1D1D1D"/><path d="M43.6628 53.9131C43.9317 55.3157 44.9137 55.9118 46.4335 55.9118C47.8597 55.9118 48.5144 55.4092 48.5144 54.4741C48.5144 53.4105 47.8013 53.0131 45.2527 52.4053C40.5063 51.2599 39.5594 49.5183 39.5594 47.356C39.5594 44.656 41.5468 42.3884 46.0243 42.3884C50.6889 42.3884 52.5827 44.7495 52.8166 47.2858H48.2572C48.1286 46.4209 47.6961 45.5443 46.0126 45.5443C44.9371 45.5443 44.2707 45.9534 44.2707 46.8183C44.2707 47.6949 44.8552 48.0339 47.3453 48.6417C52.3022 49.8806 53.2959 51.6689 53.2959 53.9599C53.2959 56.9871 50.9577 59.0793 46.2347 59.0793C41.7806 59.0793 39.4191 56.9988 39.0684 53.9014H43.6628V53.9131Z" fill="#1D1D1D"/><path d="M66 50V52H59V50H66Z" fill="#006EAD"/><path d="M74.4918 55.6664L73.5566 58.7989H68.9622L74.0476 42.7041H80.1501L85.4343 58.7989H80.5125L79.5305 55.6664H74.4918ZM78.7122 52.1716C77.9523 49.647 77.3327 47.3911 76.9703 45.8249H76.9001C76.526 47.5548 75.9064 49.8574 75.2634 52.1716H78.7122Z" fill="#1D1D1D"/><path d="M102.526 53.5392C102.526 51.0262 102.585 47.7769 102.655 45.8717H102.526C101.848 49.3197 100.772 54.1002 99.5917 58.7989H95.8156C94.8921 54.2522 93.8282 49.46 93.2086 45.8833H93.0683C93.1969 47.7769 93.2905 50.921 93.2905 53.6794V58.8106H89.0935V42.7158H95.8858C96.6807 45.9769 97.6043 50.6989 97.9667 53.0717H98.0486C98.4577 50.4885 99.5333 46.2106 100.469 42.7158H107.062V58.8106H102.526V53.5392Z" fill="#1D1D1D"/><path d="M124.107 52.2768H116.777V55.2924H124.96L124.434 58.7872H112.229V42.6924H124.411V46.1872H116.765V48.782H124.095V52.2768H124.107Z" fill="#1D1D1D"/></g><defs><clipPath id="clip0_2003_1091"><rect width="130" height="90" fill="white"/></clipPath></defs></svg>