<svg width="32" height="32" viewBox="0 0 32 32" fill="none" xmlns="http://www.w3.org/2000/svg"><g clip-path="url(#clip0_266_1214)"><rect width="32" height="32" fill="#006EAD"/><path d="M7.87598 7.146H11.7187C13.5811 7.146 14.4057 8.07437 14.4057 9.16028C14.4057 9.98738 13.9738 10.5782 13.3511 10.8314C13.9289 11.0395 14.6189 11.5797 14.6189 12.5812C14.6189 13.8528 13.6708 14.8881 11.7467 14.8881H7.87598V7.146ZM11.3372 10.1337C11.9599 10.1337 12.2123 9.81296 12.2123 9.39097C12.2123 8.91272 11.8645 8.67641 11.3204 8.67641H10.075V10.1337H11.3372ZM10.075 13.3689H11.2306C11.9767 13.3689 12.2909 13.0426 12.2909 12.4912C12.2909 12.0017 11.9935 11.6585 11.2699 11.6585H10.0694V13.3689H10.075Z" fill="white"/><path d="M22.6322 12.3505C22.3517 13.971 21.1625 15.0456 19.042 15.0456C16.512 15.0456 15.2891 13.3352 15.2891 11.0846C15.2891 8.89024 16.4952 7.01099 19.1542 7.01099C21.4261 7.01099 22.4583 8.33321 22.6098 9.67795H20.3603C20.2593 9.1153 19.9339 8.60891 19.0981 8.60891C17.9986 8.60891 17.6227 9.65544 17.6227 11.0114C17.6227 12.238 17.9369 13.4533 19.1261 13.4533C20.0237 13.4533 20.2761 12.795 20.3771 12.3618H22.6322V12.3505Z" fill="white"/><path d="M25.6507 12.5477C25.7797 13.2229 26.2509 13.5099 26.9802 13.5099C27.6646 13.5099 27.9787 13.2679 27.9787 12.8178C27.9787 12.3058 27.6365 12.1145 26.4136 11.8219C24.136 11.2705 23.6817 10.4322 23.6817 9.39126C23.6817 8.09154 24.6353 7 26.7838 7C29.0221 7 29.9309 8.13655 30.0431 9.35751H27.8553C27.7936 8.94114 27.586 8.51916 26.7782 8.51916C26.2621 8.51916 25.9424 8.71608 25.9424 9.13245C25.9424 9.55443 26.2229 9.7176 27.4177 10.0102C29.7963 10.6066 30.2731 11.4674 30.2731 12.5702C30.2731 14.0275 29.1512 15.0346 26.8848 15.0346C24.7475 15.0346 23.6143 14.0331 23.446 12.5421H25.6507V12.5477Z" fill="white"/><path d="M3.65342 22.8809L3.20464 24.3888H1L3.44024 16.6411H6.36853L8.90414 24.3888H6.54244L6.07122 22.8809H3.65342ZM5.67853 21.1986C5.3139 19.9833 5.01658 18.8973 4.84268 18.1434H4.80902C4.62951 18.9761 4.33219 20.0845 4.02366 21.1986H5.67853Z" fill="white"/><path d="M16.5611 21.8569C16.5611 20.6472 16.5891 19.083 16.6228 18.1659H16.5611C16.2357 19.8257 15.7196 22.1269 15.153 24.3888H13.3411C12.8979 22.2001 12.3874 19.8932 12.0901 18.1715H12.0228C12.0845 19.083 12.1294 20.5965 12.1294 21.9244V24.3944H10.1155V16.6467H13.3748C13.7562 18.2165 14.1994 20.4896 14.3733 21.6318H14.4126C14.6089 20.3884 15.125 18.3291 15.5738 16.6467H18.7377V24.3944H16.5611V21.8569Z" fill="white"/><path d="M25.9832 21.2492H22.4659V22.7009H26.3927L26.1403 24.3832H20.2837V16.6355H26.1291V18.3178H22.4603V19.5669H25.9776V21.2492H25.9832Z" fill="white"/></g><defs><clipPath id="clip0_266_1214"><rect width="32" height="32" fill="white"/></clipPath></defs></svg>