<svg width="30" height="30" viewBox="0 0 30 30" fill="none" xmlns="http://www.w3.org/2000/svg"><path d="M6 6C5.20435 6 4.44129 6.31607 3.87868 6.87868C3.31607 7.44129 3 8.20435 3 9V10.5H27V9C27 8.20435 26.6839 7.44129 26.1213 6.87868C25.5587 6.31607 24.7956 6 24 6H6Z" fill="white"/><path fill-rule="evenodd" clip-rule="evenodd" d="M27 13.5H3V21C3 21.7956 3.31607 22.5587 3.87868 23.1213C4.44129 23.6839 5.20435 24 6 24H24C24.7956 24 25.5587 23.6839 26.1213 23.1213C26.6839 22.5587 27 21.7956 27 21V13.5ZM6 19.5C6 19.1022 6.15804 18.7206 6.43934 18.4393C6.72064 18.158 7.10218 18 7.5 18H9C9.39782 18 9.77936 18.158 10.0607 18.4393C10.342 18.7206 10.5 19.1022 10.5 19.5C10.5 19.8978 10.342 20.2794 10.0607 20.5607C9.77936 20.842 9.39782 21 9 21H7.5C7.10218 21 6.72064 20.842 6.43934 20.5607C6.15804 20.2794 6 19.8978 6 19.5ZM13.5 18C13.1022 18 12.7206 18.158 12.4393 18.4393C12.158 18.7206 12 19.1022 12 19.5C12 19.8978 12.158 20.2794 12.4393 20.5607C12.7206 20.842 13.1022 21 13.5 21H15C15.3978 21 15.7794 20.842 16.0607 20.5607C16.342 20.2794 16.5 19.8978 16.5 19.5C16.5 19.1022 16.342 18.7206 16.0607 18.4393C15.7794 18.158 15.3978 18 15 18H13.5Z" fill="white"/></svg>