<svg width="30" height="30" viewBox="0 0 30 30" fill="none" xmlns="http://www.w3.org/2000/svg"><path fill-rule="evenodd" clip-rule="evenodd" d="M16.9501 1.56899C17.2546 1.66476 17.5206 1.85517 17.7094 2.11253C17.8983 2.36989 18.0001 2.68078 18.0001 2.99999V10.5H24.0001C24.2744 10.4999 24.5436 10.575 24.7782 10.7172C25.0129 10.8595 25.204 11.0633 25.3308 11.3066C25.4577 11.5499 25.5153 11.8233 25.4976 12.0971C25.4798 12.3709 25.3873 12.6346 25.2301 12.8595L14.7301 27.8595C14.5473 28.1213 14.2858 28.318 13.9836 28.4209C13.6813 28.5238 13.3541 28.5276 13.0496 28.4317C12.7451 28.3358 12.4791 28.1453 12.2903 27.8878C12.1015 27.6303 11.9999 27.3193 12.0001 27V19.5H6.00006C5.72568 19.5001 5.45652 19.425 5.22188 19.2828C4.98724 19.1405 4.7961 18.9367 4.66927 18.6934C4.54244 18.4501 4.48477 18.1766 4.50254 17.9028C4.52031 17.629 4.61284 17.3654 4.77006 17.1405L15.2701 2.14049C15.4531 1.87917 15.7146 1.68301 16.0168 1.58051C16.3189 1.478 16.6458 1.4745 16.9501 1.57049V1.56899Z" fill="white"/></svg>