<svg width="30" height="30" viewBox="0 0 30 30" fill="none" xmlns="http://www.w3.org/2000/svg"><path d="M3 15.75C3 15.4545 3.0582 15.1619 3.17127 14.889C3.28434 14.616 3.45008 14.3679 3.65901 14.159C3.86794 13.9501 4.11598 13.7843 4.38896 13.6713C4.66194 13.5582 4.95453 13.5 5.25 13.5C5.54547 13.5 5.83806 13.5582 6.11104 13.6713C6.38402 13.7843 6.63206 13.9501 6.84099 14.159C7.04992 14.3679 7.21566 14.616 7.32873 14.889C7.4418 15.1619 7.5 15.4545 7.5 15.75V24.75C7.5 25.3467 7.26295 25.919 6.84099 26.341C6.41903 26.7629 5.84674 27 5.25 27C4.65326 27 4.08097 26.7629 3.65901 26.341C3.23705 25.919 3 25.3467 3 24.75V15.75ZM9 15.4995V23.6445C8.99974 24.202 9.15483 24.7485 9.44787 25.2228C9.74091 25.6971 10.1603 26.0803 10.659 26.3295L10.734 26.367C11.5663 26.783 12.484 26.9997 13.4145 27H21.5385C22.2323 27.0003 22.9047 26.7601 23.4413 26.3203C23.9779 25.8805 24.3455 25.2683 24.4815 24.588L26.2815 15.588C26.3685 15.1528 26.3578 14.7037 26.2503 14.2732C26.1428 13.8426 25.9411 13.4412 25.6597 13.098C25.3783 12.7548 25.0243 12.4783 24.6232 12.2884C24.2221 12.0986 23.7838 12 23.34 12H18V6C18 5.20435 17.6839 4.44129 17.1213 3.87868C16.5587 3.31607 15.7956 3 15 3C14.6022 3 14.2206 3.15804 13.9393 3.43934C13.658 3.72064 13.5 4.10218 13.5 4.5V5.5005C13.5 6.79872 13.0789 8.06192 12.3 9.1005L10.2 11.8995C9.42107 12.9381 9 14.2013 9 15.4995V15.4995Z" fill="white"/></svg>