<svg width="40" height="40" viewBox="0 0 40 40" fill="none" xmlns="http://www.w3.org/2000/svg"><circle cx="20" cy="20" r="20" fill="#004F89"/><mask id="mask0_132_642" style="mask-type:alpha" maskUnits="userSpaceOnUse" x="0" y="0" width="40" height="40"><circle cx="20" cy="20" r="20" fill="#F8B6AA"/></mask><g mask="url(#mask0_132_642)"><circle cx="10.2325" r="20" fill="#158CCE"/><circle cx="27.907" cy="37.6748" r="20" fill="#158CCE"/></g><path d="M34.6784 26.6124V21.0109C34.6784 18.2951 33.0658 17.0645 30.0105 17.0645C28.7162 17.0645 27.4007 17.2978 26.4672 17.7222L26.5945 20.6502C27.2522 20.2895 28.4828 20.0137 29.4801 20.0137C30.8168 20.0137 31.3684 20.3532 31.3684 21.2019V21.3716C30.9229 21.2019 30.1166 21.0746 29.374 21.0746C27.1249 21.0746 25.7245 22.093 25.7245 23.9814C25.7245 25.7637 26.8491 26.8246 28.886 26.8246C29.9681 26.8246 30.8592 26.4639 31.4745 25.9546V26.6124H34.6784ZM31.3684 24.2572C31.0714 24.4906 30.5409 24.6391 30.1166 24.6391C29.3528 24.6391 29.0769 24.427 29.0769 23.939C29.0769 23.3661 29.4376 23.1115 30.2439 23.1115C30.6046 23.1115 31.0714 23.1963 31.3684 23.3236V24.2572Z" fill="white"/><path d="M25.0345 25.9333L22.9127 23.9389C23.91 22.7507 24.5465 21.223 24.5465 19.3983V18.8679L21.1941 18.9952V19.759C21.1941 20.5229 21.0031 21.223 20.6849 21.8171L18.0539 19.2922C16.9718 18.2526 16.8233 17.998 16.8233 17.616C16.8233 17.0432 17.2476 16.6825 18.16 16.6825C18.9238 16.6825 19.8574 16.9583 20.3242 17.319L21.0244 14.5395C20.2817 14.0939 19.1572 13.7969 17.8205 13.7969C14.7227 13.7969 13.3436 15.6852 13.3436 17.7221C13.3436 18.0404 13.386 18.3162 13.4497 18.6133C12.113 19.3983 11.243 20.7562 11.243 22.5173C11.243 24.83 12.8344 26.8245 16.8869 26.8245C17.969 26.8245 19.1572 26.5274 20.2817 25.9758L20.9607 26.6123H25.0345V25.9333ZM16.9506 23.9389C15.2107 23.9389 14.6803 23.0902 14.6803 22.1354C14.6803 21.6686 14.8288 21.3079 15.0622 21.0321C15.3593 21.3291 15.6987 21.6474 15.9746 21.902L18.0115 23.8328C17.672 23.8965 17.3113 23.9389 16.9506 23.9389Z" fill="white"/><path d="M8.26746 12.7998C7.20658 12.7998 6.44275 13.5424 6.44275 14.5184C6.44275 15.5369 7.20658 16.2795 8.26746 16.2795C9.28591 16.2795 10.0073 15.5369 10.0073 14.5184C10.0073 13.5424 9.28591 12.7998 8.26746 12.7998ZM9.92244 17.2131L6.52762 17.3404V26.6125H9.92244V17.2131Z" fill="white"/></svg>